<?xml version="1.0" encoding="UTF-8"?>
<svg id="Layer_1" xmlns="http://www.w3.org/2000/svg" version="1.1" xmlns:xlink="http://www.w3.org/1999/xlink" viewBox="0 0 1200 236.89">
  <!-- Generator: Adobe Illustrator 30.1.0, SVG Export Plug-In . SVG Version: 2.1.1 Build 136)  -->
  <defs>
    <style>
      .st0 {
        fill: url(#linear-gradient2);
      }

      .st1 {
        fill: url(#linear-gradient1);
      }

      .st2 {
        fill: url(#linear-gradient9);
      }

      .st3 {
        fill: url(#linear-gradient8);
      }

      .st4 {
        fill: url(#linear-gradient7);
      }

      .st5 {
        fill: url(#linear-gradient4);
      }

      .st6 {
        fill: url(#linear-gradient5);
      }

      .st7 {
        fill: url(#linear-gradient3);
      }

      .st8 {
        fill: url(#linear-gradient6);
      }

      .st9 {
        fill: url(#linear-gradient);
      }
    </style>
    <linearGradient id="linear-gradient" x1="132.05" y1="46.62" x2="132.05" y2="212.49" gradientUnits="userSpaceOnUse">
      <stop offset="0" stop-color="#03b1ed"/>
      <stop offset="1" stop-color="#430163"/>
    </linearGradient>
    <linearGradient id="linear-gradient1" x1="165.92" y1="191.61" x2="222.28" y2="191.61" gradientUnits="userSpaceOnUse">
      <stop offset="0" stop-color="#6ab9fc"/>
      <stop offset="1" stop-color="#9b91e7"/>
    </linearGradient>
    <linearGradient id="linear-gradient2" y1="67.5" y2="67.5" xlink:href="#linear-gradient1"/>
    <linearGradient id="linear-gradient3" x1="29.92" y1="127.08" x2="47.81" y2="191.8" gradientUnits="userSpaceOnUse">
      <stop offset="0" stop-color="#00312b"/>
      <stop offset=".18" stop-color="#004032"/>
      <stop offset=".53" stop-color="#006946"/>
      <stop offset="1" stop-color="#00a866"/>
    </linearGradient>
    <linearGradient id="linear-gradient4" x1="53.22" y1="51.07" x2="94.38" y2="93.94" xlink:href="#linear-gradient3"/>
    <linearGradient id="linear-gradient5" x1="1108.64" y1="-3.34" x2="1108.64" y2="266.64" xlink:href="#linear-gradient3"/>
    <linearGradient id="linear-gradient6" x1="350.19" y1="28.46" x2="350.19" y2="203.5" xlink:href="#linear-gradient"/>
    <linearGradient id="linear-gradient7" x1="551.87" y1="28.46" x2="551.87" y2="203.5" xlink:href="#linear-gradient"/>
    <linearGradient id="linear-gradient8" x1="740.46" y1="28.46" x2="740.46" y2="203.5" xlink:href="#linear-gradient"/>
    <linearGradient id="linear-gradient9" x1="939.15" y1="-3.34" x2="939.15" y2="266.64" xlink:href="#linear-gradient3"/>
  </defs>
  <path class="st9" d="M222.28,129.63h0c-49.5-.37-89.34-40.8-88.97-90.3h0s-1.19,0-1.19,0h0c-.37,49.51-40.8,89.34-90.3,88.97h0s0,1.19,0,1.19h0c49.5.37,89.34,40.8,88.97,90.3h0s1.19,0,1.19,0h0c.37-49.5,40.8-89.34,90.3-88.97h0s0-1.19,0-1.19Z"/>
  <path class="st1" d="M222.28,191.63h0c-15.46-.11-27.9-12.74-27.79-28.2h0s-.37,0-.37,0h0c-.11,15.46-12.74,27.9-28.2,27.79h0s0,.37,0,.37h0c15.46.11,27.9,12.74,27.79,28.2h0s.37,0,.37,0h0c.11-15.46,12.74-27.9,28.2-27.79h0s0-.37,0-.37Z"/>
  <path class="st0" d="M222.28,67.53h0c-15.46-.11-27.9-12.74-27.79-28.2h0s-.37,0-.37,0h0c-.11,15.46-12.74,27.9-28.2,27.79h0s0,.37,0,.37h0c15.46.11,27.9,12.74,27.79,28.2h0s.37,0,.37,0h0c.11-15.46,12.74-27.9,28.2-27.79h0s0-.37,0-.37Z"/>
  <path class="st7" d="M29.84,125.9c-.05-.18-.25-.26-.42-.17l-2.41,1.4c-.12.06-.16.2-.13.32l4.62,16.81c.04.16.2.25.36.2l2.58-.76c.15-.05.23-.21.19-.35l-4.79-17.46M42.42,151.52c-1.02-3.7-4.85-5.88-8.55-4.87-3.7,1.02-5.88,4.85-4.87,8.55,1.02,3.7,4.85,5.88,8.55,4.87,3.7-1.02,5.88-4.85,4.87-8.55M47.09,183.35c3.03,2.58,6.23,5.38,9.64,8.39.14.12.29.18.46.2.27.02.46-.27.32-.51l-17.02-28.85c-.19-.32-.57-.47-.93-.36l-2.44.72c-.36.11-.52.34-.49.72l2.64,32.77c.01.18.19.29.35.25l8.32-2.24c.13-.04.19-.12.16-.25l-1.56-10.51c-.09-.6.09-.71.55-.31"/>
  <path class="st5" d="M139.49,17.75l-88.86,31.98c-.29.11-.53.32-.66.6L12.14,131.34c-.27.59-.12.74.47.46l35.89-17.21c.09-.04.14-.12.14-.21,2.22.39,4.41.87,6.56,1.44,29.71-4.62,53.71-26.65,61.15-55.4-.54-1.75-1.02-3.54-1.43-5.34.14.01.28-.04.36-.17l24.54-36.74c.31-.47.21-.61-.32-.42Z"/>
  <path class="st6" d="M1187.99,17.35v198.56h-40.35v-16.79c-10.56,12.73-26,18.96-45.5,18.96-41.17,0-72.85-29.25-72.85-75.02s31.69-75.02,72.85-75.02c17.88,0,33.04,5.69,43.61,17.6V17.35h42.25ZM1146.55,143.06c0-25.19-16.25-40.35-37.1-40.35s-37.37,15.17-37.37,40.35,16.25,40.35,37.37,40.35,37.1-15.17,37.1-40.35Z"/>
  <path class="st8" d="M400.86,115.31h42.13v80.84c-21.92,16.51-52.09,25.33-80.56,25.33-62.63,0-108.74-42.98-108.74-103.05S299.81,15.4,363.29,15.4c35.01,0,64.05,11.96,83.41,34.44l-29.6,27.33c-14.52-15.37-31.31-22.49-51.52-22.49-38.71,0-65.19,25.9-65.19,63.76s26.47,63.76,64.62,63.76c12.53,0,24.2-2.28,35.87-8.54v-58.35Z"/>
  <path class="st4" d="M631.72,154.03h-115.86c4.27,19.07,20.5,30.74,43.84,30.74,16.23,0,27.9-4.84,38.43-14.8l23.63,25.62c-14.23,16.23-35.58,24.77-63.19,24.77-52.95,0-87.39-33.31-87.39-78.85s35.01-78.85,81.7-78.85,79.71,30.17,79.71,79.42c0,3.42-.57,8.26-.85,11.96ZM515.29,128.12h75.44c-3.13-19.36-17.65-31.88-37.58-31.88s-34.73,12.24-37.86,31.88Z"/>
  <path class="st3" d="M818.74,130.4v87.68h-44.41v-80.84c0-24.76-11.39-36.15-31.03-36.15-21.35,0-36.72,13.09-36.72,41.28v75.72h-44.41V64.93h42.41v17.93c11.96-13.1,29.89-20.21,50.67-20.21,36.15,0,63.48,21.06,63.48,67.75Z"/>
  <path class="st2" d="M1016.29,181.07v37.01h-154.29V18.81h150.59v37.01h-104.75v43.27h92.51v35.87h-92.51v46.12h108.46Z"/>
</svg>